PathFileType	4	(X/Y/Z)	C:/Users/opensim2020/Desktop/walking_exp_matlab/subject01_walking06_straight_03.trc	
DataRate	CameraRate	NumFrames	NumMarkers	Units	OrigDataRate	OrigDataStartFrame	OrigNumFrames	
100.00	100.00	7	43	mm	100.00	2105	206	
Frame#	Time	LFHD			RFHD			LBHD			RBHD			C7			T10			CLAV			STRN			RBAK			LSHO			LUPA			LELB			LFRM			LWRA			LWRB			LFIN			RSHO			RUPA			RELB			RFRM			RWRA			RWRB			RFIN			LASI			RASI			LPSI			RPSI			LTHI			LKNE			LTIB			LANK			LHEE			LTOE			RTHI			RKNE			RTIB			RANK			RHEE			RTOE			*39			*40			*41			*42			
		X1	Y1	Z1	X2	Y2	Z2	X3	Y3	Z3	X4	Y4	Z4	X5	Y5	Z5	X6	Y6	Z6	X7	Y7	Z7	X8	Y8	Z8	X9	Y9	Z9	X10	Y10	Z10	X11	Y11	Z11	X12	Y12	Z12	X13	Y13	Z13	X14	Y14	Z14	X15	Y15	Z15	X16	Y16	Z16	X17	Y17	Z17	X18	Y18	Z18	X19	Y19	Z19	X20	Y20	Z20	X21	Y21	Z21	X22	Y22	Z22	X23	Y23	Z23	X24	Y24	Z24	X25	Y25	Z25	X26	Y26	Z26	X27	Y27	Z27	X28	Y28	Z28	X29	Y29	Z29	X30	Y30	Z30	X31	Y31	Z31	X32	Y32	Z32	X33	Y33	Z33	X34	Y34	Z34	X35	Y35	Z35	X36	Y36	Z36	X37	Y37	Z37	X38	Y38	Z38	X39	Y39	Z39	X40	Y40	Z40	X41	Y41	Z41	X42	Y42	Z42	X43	Y43	Z43	

1	0.000	1515.11145	-968.19421	1670.08325	1626.63989	-940.32196	1676.16101	1537.02502	-1074.81311	1607.63708	1655.17664	-1048.26343	1612.58875	1557.09192	-1091.46606	1428.67627	1543.60730	-1138.17456	1139.28821	1557.18896	-951.01465	1357.15356	1544.58423	-914.24359	1200.20471	1621.27710	-1156.97888	1235.67419	1396.32910	-1001.59589	1398.93506	1299.45386	-1045.61462	1221.16663	1290.90894	-1077.25916	1075.45972	1261.47998	-1054.25732	965.03778	1276.96936	-998.22290	837.50165	1248.40613	-1050.31299	843.18896	1237.77722	-1013.07031	767.90686	1707.51379	-1018.69391	1376.32324	1807.22876	-1059.76160	1174.03552	1818.65247	-1036.76782	1050.74524	1858.82300	-978.18573	948.14716	1862.51477	-862.76288	868.16840	1890.05627	-910.57953	851.42548	1906.53406	-849.07312	797.95978	1433.32935	-970.03754	934.56250	1650.90503	-979.78516	924.90149	1473.98083	-1156.56848	945.60779	1617.80359	-1165.04163	950.28485	1353.37683	-920.39282	618.59772	1369.83484	-892.89246	486.24774	1357.58618	-911.20728	301.01535	1403.26196	-889.10620	79.15732	1461.02515	-921.73590	40.77224	1387.67126	-744.45209	69.07782	1711.26794	-1088.79309	606.10577	1698.88477	-1109.44324	448.07935	1704.92859	-1192.36365	290.81009	1665.40369	-1233.97754	83.04302	1607.85840	-1273.23633	48.12564	1697.91638	-1100.35229	29.23610	1607.37183	-960.55981	1708.02954	-3101.88330	1973.22278	1023.35089	-3140.71313	2012.60156	1022.07739			 
2	0.010	1513.82764	-960.53870	1668.98792	1624.92065	-932.12079	1675.37817	1536.21729	-1067.39148	1607.20422	1654.19397	-1040.10010	1612.25403	1556.83411	-1084.32434	1427.90991	1543.92712	-1131.18164	1138.51331	1555.84619	-943.84290	1356.44519	1543.19934	-907.17365	1199.50940	1621.92908	-1149.35791	1235.12000	1395.37170	-995.75842	1398.10620	1299.22668	-1041.44910	1220.53394	1291.23694	-1074.08728	1075.08899	1261.35657	-1052.67590	964.50305	1275.36621	-997.74969	836.21802	1248.01978	-1050.51221	842.65491	1236.65332	-1014.00055	766.91748	1706.62732	-1010.24878	1375.72900	1807.28528	-1049.42212	1173.77295	1818.93054	-1026.07056	1050.60022	1859.05542	-966.85040	948.31238	1862.33301	-851.13226	868.79260	1890.01672	-898.81787	852.07391	1906.55322	-836.97424	798.77679	1432.87463	-963.04028	933.72369	1650.64319	-972.08331	924.51630	1474.29456	-1149.78247	944.62299	1618.16052	-1157.71057	949.98267	1352.95923	-916.66614	616.61517	1369.44250	-888.42981	484.98776	1356.64844	-900.52899	299.98178	1401.43774	-869.40295	78.37749	1458.98987	-901.04022	39.14128	1385.40027	-724.58960	73.50166	1711.04041	-1083.60583	606.38971	1698.71191	-1106.23547	448.31757	1704.76599	-1190.48828	292.08456	1665.62720	-1233.52600	84.33978	1608.19861	-1272.98743	49.72742	1698.02148	-1100.25757	29.24304	1605.77917	-952.51978	1707.16101	-3101.88599	1973.06128	1023.25916	-3140.66284	2012.53198	1021.94885			 
3	0.020	1512.11401	-952.90582	1668.09277	1623.03271	-923.93854	1674.54932	1535.22156	-1059.85962	1606.72229	1652.97583	-1032.01709	1611.86133	1556.31873	-1077.21729	1427.05603	1543.97083	-1124.02844	1137.61877	1554.35254	-936.63605	1355.72681	1541.70313	-899.96301	1198.82715	1622.24463	-1141.74756	1234.46899	1394.20227	-989.80664	1397.21729	1298.85229	-1037.08679	1219.72949	1291.54675	-1070.63611	1074.64270	1261.12378	-1050.72559	963.84369	1274.81482	-997.04932	835.06049	1247.59070	-1050.11206	842.14166	1235.71863	-1014.60608	765.85071	1705.41016	-1002.14130	1375.33630	1807.11243	-1039.15808	1173.54480	1819.11523	-1015.59753	1050.50635	1859.14587	-955.75214	948.41675	1861.88477	-839.76611	869.19647	1889.99304	-887.28137	852.52655	1906.31274	-825.17297	799.50159	1432.19238	-956.31024	932.78229	1650.21533	-964.29437	923.97998	1474.41858	-1142.77124	943.66138	1618.23169	-1150.02734	949.25482	1352.26904	-912.86096	614.70526	1369.09888	-883.65051	483.90887	1355.65662	-890.26013	299.22083	1399.03784	-851.47174	78.42037	1456.81934	-881.05316	36.96025	1383.13000	-706.49396	77.72340	1710.97974	-1078.50110	606.70020	1698.61121	-1102.83826	448.59174	1704.47693	-1188.01965	292.87631	1665.94861	-1232.86475	85.44257	1608.49707	-1272.60901	50.94595	1698.08789	-1100.21204	29.23865	1603.95300	-944.17188	1706.38611	-3101.97559	1973.03796	1023.75934	-3140.62744	2012.62000	1022.15948			 
4	0.030	1510.24756	-945.41467	1667.21252	1620.98657	-915.76270	1673.70007	1533.92358	-1052.35596	1606.31763	1651.55457	-1023.95087	1611.51257	1555.57458	-1070.16577	1426.24768	1543.74500	-1116.71143	1136.64429	1552.64124	-929.37903	1354.88660	1540.00842	-892.80267	1198.09668	1622.23010	-1134.10449	1233.72034	1392.81592	-983.84119	1396.27625	1298.17200	-1032.45337	1218.81665	1291.28394	-1067.78967	1074.06311	1260.84326	-1048.46570	963.12683	1273.43396	-995.83997	833.67316	1247.06445	-1049.32153	841.31024	1234.90466	-1014.82043	764.57520	1704.10864	-993.78461	1374.64709	1806.64148	-1028.99902	1173.25916	1818.89954	-1004.98773	1050.24744	1858.91992	-944.79065	948.46558	1861.14453	-828.62775	869.45520	1889.66565	-875.93353	852.81427	1905.84949	-813.70447	800.03796	1431.44312	-949.47565	931.80157	1649.58643	-956.41235	923.35815	1474.33154	-1135.53003	942.60651	1618.14453	-1142.15063	948.71912	1351.74487	-908.92523	612.73846	1368.61523	-878.55640	483.01962	1354.70496	-880.44080	298.59857	1396.80603	-835.40570	79.04073	1454.05103	-864.41602	36.73217	1381.06177	-689.92377	81.33787	1710.53845	-1072.74158	606.61786	1698.45996	-1099.04089	448.85468	1704.47729	-1185.62512	294.01068	1666.17554	-1232.21814	86.62298	1608.79700	-1272.30774	52.75110	1698.19849	-1100.10376	29.19663	1601.91492	-935.89667	1705.56921	-3101.82373	1973.21777	1023.37091	-3140.63672	2012.55493	1022.06616			 
5	0.040	1508.14307	-937.69592	1666.34875	1618.74268	-907.62115	1672.84119	1532.37732	-1044.98181	1606.08289	1649.87939	-1015.98279	1611.21558	1554.55701	-1063.02515	1425.44104	1543.32214	-1109.30298	1135.70300	1550.72766	-922.12189	1354.13904	1538.14514	-885.43182	1197.39978	1621.86755	-1126.36487	1232.87329	1391.21948	-977.74243	1395.26526	1297.35730	-1027.64197	1217.82227	1291.06287	-1063.70898	1073.20032	1260.72437	-1046.01453	962.28210	1272.42700	-994.43561	832.16431	1246.84485	-1048.21472	840.48859	1234.11157	-1014.79938	763.29645	1702.66760	-985.50824	1374.04968	1805.93359	-1018.97961	1172.98340	1818.49536	-994.75726	1050.10107	1858.46631	-934.08722	948.53967	1860.18311	-817.80688	869.70081	1889.18018	-864.81635	853.11383	1905.07532	-802.53223	800.50433	1430.57471	-942.15460	930.73218	1648.87793	-948.41461	922.72858	1474.03369	-1128.21167	941.65717	1617.78210	-1134.00073	948.01202	1351.45972	-904.50366	610.86530	1368.05420	-872.96692	482.24127	1353.47241	-871.01605	297.98416	1394.80615	-820.55591	79.05422	1451.91284	-849.08789	36.24886	1379.01038	-675.26703	84.33321	1710.21069	-1066.81665	606.57703	1698.40320	-1094.82178	448.96219	1704.35059	-1182.81165	295.01733	1666.48877	-1231.55176	88.01923	1609.22144	-1271.99109	54.80432	1698.37000	-1099.97620	29.09444	1599.75208	-927.64581	1704.77905	-3101.87354	1973.07239	1023.34137	-3140.62329	2012.51074	1021.90997			 
6	0.050	1505.89661	-929.91992	1665.49646	1616.30371	-899.44171	1671.94727	1530.65808	-1037.39453	1605.72998	1648.01843	-1008.20642	1611.03284	1553.29456	-1055.91345	1424.52747	1542.62439	-1101.72986	1134.63086	1548.70276	-914.77618	1353.46313	1536.20398	-877.95190	1196.83142	1621.14844	-1118.56470	1231.93970	1389.35938	-971.53522	1394.24756	1296.33521	-1022.53564	1216.69702	1290.95337	-1058.88037	1072.24158	1260.29578	-1042.96545	961.28204	1271.41504	-992.67151	830.59894	1246.40979	-1046.65198	839.54523	1233.47534	-1014.18066	761.86475	1700.90955	-977.43793	1373.41052	1804.96863	-1009.20282	1172.72766	1817.88538	-984.75983	1049.98804	1857.78943	-923.58624	948.60217	1859.00769	-807.27185	869.84570	1888.38428	-854.06750	853.36853	1904.05859	-791.64832	800.84698	1429.50671	-934.66412	929.57312	1648.00391	-940.31445	921.95764	1473.49255	-1120.79480	940.80591	1617.27283	-1125.83740	947.42035	1351.28027	-899.34467	609.41626	1367.44324	-866.88434	481.59720	1352.28394	-862.18988	297.14923	1393.36450	-807.75507	79.00447	1450.43164	-835.34082	35.68523	1377.01990	-662.35309	86.04311	1710.41638	-1061.24524	606.78125	1698.31238	-1090.20569	448.89539	1704.08765	-1179.67163	295.76907	1666.94617	-1230.74231	89.45228	1609.41040	-1271.51575	56.43991	1698.43359	-1099.86292	29.10952	1597.36487	-919.39996	1703.98450	-3101.89648	1973.16357	1023.45355	-3140.53979	2012.52209	1022.03741			 
7	0.060	1503.41516	-922.22559	1664.62061	1613.67957	-891.33209	1671.09741	1528.58179	-1029.94519	1605.49573	1645.80713	-1000.21179	1610.74048	1551.76953	-1048.73804	1423.54138	1541.75476	-1094.09314	1133.58765	1546.40723	-907.44647	1352.75098	1534.08899	-870.33997	1196.26807	1620.13379	-1110.66333	1230.94922	1387.26111	-965.25476	1393.12402	1295.07141	-1017.22314	1215.48547	1290.63733	-1053.92041	1071.26929	1259.73914	-1039.47876	960.26569	1270.46289	-990.50043	828.94531	1245.82117	-1044.61853	838.51721	1232.87561	-1013.31549	760.32733	1698.96399	-969.34882	1372.90210	1803.70825	-999.59991	1172.44287	1816.93469	-974.85907	1049.80042	1856.79651	-913.65833	948.94037	1857.58069	-797.01263	869.96075	1887.45483	-843.63416	853.53137	1902.72375	-781.10138	801.05145	1428.34204	-926.94159	928.38855	1647.02124	-932.14966	921.13184	1472.82703	-1112.81970	939.85498	1616.72498	-1117.85889	947.23584	1351.28442	-893.22430	608.32593	1366.81824	-860.35565	481.08868	1351.09900	-853.86169	296.20383	1392.21436	-796.78754	78.58651	1449.46155	-823.36053	34.94493	1375.18811	-651.14874	86.65641	1709.85498	-1054.37683	606.50446	1698.12976	-1085.32239	449.14630	1703.98059	-1176.51453	296.79156	1667.24902	-1229.94006	90.87614	1609.89771	-1270.97278	58.52991	1698.60046	-1099.71289	29.10483	1594.73828	-911.27509	1703.20325	-3101.80151	1973.05481	1023.44720	-3140.62842	2012.67444	1022.02820			 
